# xmcd
#
# Track frame offsets: 
#        150
#        13382
#        32297
#        55237
#        71056
#        88306
#        104016
#        124314
#        142732
#        161378
#        177297
#        193666
#        210162
#        231672
#
# Disc length: 3328 seconds
#
# Revision: 0
# Processed by: cddbd v1.5.2PL0 Copyright (c) Steve Scherf et al.
# Submitted via: ExactAudioCopyFreeDBPlugin 1.0
#
DISCID=c60cfe0e
DTITLE=The Brand New Heavies - BNH
DYEAR=2019
DGENRE=Pop
TTITLE0=Beautiful
TTITLE1=Stupid Love
TTITLE2=Just Believe In You
TTITLE3=Getaway
TTITLE4=Heat
TTITLE5=The Funk Is Back
TTITLE6=Together
TTITLE7=These Walls
TTITLE8=It's Mys Destiny
TTITLE9=Wired Up
TTITLE10=Dance It Out
TTITLE11=Little Dancer
TTITLE12=Dontcha Wanna
TTITLE13=Get On The Right Side
EXTD=
EXTT0=
EXTT1=
EXTT2=
EXTT3=
EXTT4=
EXTT5=
EXTT6=
EXTT7=
EXTT8=
EXTT9=
EXTT10=
EXTT11=
EXTT12=
EXTT13=
PLAYORDER=
